<?xml version="1.0" encoding="UTF-8"?><svg id="Layer_2" xmlns="http://www.w3.org/2000/svg" width="107.82" height="82.52" viewBox="0 0 107.82 82.52"><defs><style>.cls-1{fill:#231f20;}.cls-1,.cls-2,.cls-3{stroke:#231f20;stroke-miterlimit:10;}.cls-2{fill:#fac5c1;}.cls-3{fill:none;}</style></defs><g id="Layer_1-2"><circle class="cls-1" cx="29.77" cy="52.75" r="29.27"/><polyline class="cls-1" points="16.83 26.49 12.06 19.69 47.64 19.69 41.87 25.98"/><path class="cls-2" d="m5.67,48.8c.34-2.24,1.19-5.9,3.57-9.78,1.99-3.25,4.3-5.44,5.94-6.77,1.52.94,3.05,1.89,4.57,2.83-1.54,1.24-3.91,3.44-5.85,6.86-2,3.52-2.67,6.79-2.93,8.78-1.77-.64-3.54-1.28-5.3-1.92Z"/><path class="cls-3" d="m29.77,19.69c2.7-11.45,6.63-14.66,9.67-15.51,9.3-2.6,16.99,14.91,32.2,16.43,10.09,1.01,19.06-5.45,25.09-11.1"/><line class="cls-3" x1="92.64" y1="7.07" x2="89.85" y2=".86"/><line class="cls-3" x1="96.74" y1="6.22" x2="96.74"/><line class="cls-3" x1="100.78" y1="8.79" x2="107.64" y2="6.22"/><path class="cls-3" d="m99.93,11.56c2.26.51,4.52,1.01,6.77,1.52"/><line class="cls-3" x1="99.07" y1="6.22" x2="103.78" y2="1.71"/></g></svg>