<?xml version="1.0" encoding="UTF-8"?><svg id="Layer_2" xmlns="http://www.w3.org/2000/svg" width="222" height="227" viewBox="0 0 222 227"><defs><style>.cls-1{fill:#3f5caa;}.cls-1,.cls-2{stroke-width:0px;}.cls-2{fill:snow;}</style></defs><g id="Layer_1-2"><ellipse class="cls-1" cx="111" cy="113.5" rx="111" ry="113.5"/><path class="cls-2" d="m85.93,206.92v-93.42h-24.61v-32.29h24.61c-.72-4.98-1.21-12.56.65-21.41,1.48-7.02,3.85-18.3,12.78-26.01,9.22-7.97,20.96-8.27,38.81-8.73,7.44-.19,13.61.27,17.81.71.1,10.14.19,20.29.29,30.43-8.15-1.19-14.38-.32-18.24.55-3.75.85-5.34,1.71-6.57,2.92-2.94,2.89-3.29,7.18-3.65,11.49-.27,3.26-.06,5.98.18,7.84,9.12.43,18.24.85,27.36,1.28-.06,10.21-.12,20.43-.18,30.64-9.33-.15-18.67-.3-28-.45.04,32.14.09,64.27.13,96.41l-41.37.04Z"/></g></svg>