<?xml version="1.0" encoding="UTF-8"?><svg id="Layer_2" xmlns="http://www.w3.org/2000/svg" width="126.97" height="222.02" viewBox="0 0 126.97 222.02"><defs><style>.cls-1{stroke-width:2px;}.cls-1,.cls-2{stroke:#231f20;stroke-miterlimit:10;}.cls-1,.cls-3{fill:#976b57;}.cls-2{fill:none;}.cls-4{fill:#88604d;}.cls-4,.cls-5,.cls-6,.cls-7,.cls-8,.cls-3,.cls-9,.cls-10{stroke-width:0px;}.cls-5{fill:#88614e;}.cls-6{fill:#231f20;}.cls-7{fill:#cf4e9c;}.cls-8{fill:#31200f;}.cls-9{fill:#f38190;}.cls-10{fill:#fff;}</style></defs><g id="Layer_1-2"><path class="cls-3" d="m45.14,3.13c18-6.91,38.77-.29,51.82,10.71,26.74,22.53,28.01,69.21,6.22,88.77-14.44,12.96-36.06,11.37-43.57,10.82-7.92-.58-25.41-1.87-36.48-13.32C.62,76.83,9.68,16.74,45.14,3.13Z"/><path class="cls-3" d="m10.85,61.56C3.71,62.08-.47,67.11.04,70.27c.48,2.98,5.43,6.16,11.78,5.27"/><path class="cls-3" d="m118.38,64.36c4.54.19,8.12,2.34,8.55,4.71.51,2.83-3.26,7.3-9.94,7.91"/><path class="cls-8" d="m10.96,59.61c4.76.54,20.09,1.68,35.04-7.99,9.7-6.28,14.95-14.34,17.39-18.79,2.46,4.68,7.88,13.4,18.19,20.19,15.68,10.33,31.89,9.1,36.77,8.55C118.83,23.26,85.93-3.8,56.39.44,31.91,3.94,10.57,28.84,10.96,59.61Z"/><path class="cls-3" d="m42.35,110.79c-3.05,2.63-8.19,7.61-12.37,15.17-11.96,21.62-7.48,48.95-2.66,49.64,2.6.37,7.03-6.77,15.03-35.03,1.23,17.2.22,30.69-1.03,40.17-.93,7.02-2.02,12.07,1.06,16.49,2.56,3.67,6.89,5.3,12.21,6.02,4.29.58,9.22.56,14.38.54,11.42-.04,23.86-.08,27.83-7.27,2.34-4.23.26-8.27-1.42-16.13-1.66-7.78-2.91-19.28-.35-34.39,8.96,22.78,13.13,27.62,15.25,27.12,3.74-.88,4.43-19.25-1.42-34.92-5.09-13.63-14.1-22.52-20.09-27.41-6.59,1.66-15.61,3.19-26.33,2.83-7.88-.26-14.68-1.47-20.09-2.83Z"/><path class="cls-3" d="m52.93,202.98c3.75.29,7.5.59,11.24.88,1.72,9.26-.68,16.38-4.83,17.85-1.55.55-3.37.33-4.73-.47-3.83-2.26-4.89-9.67-1.68-18.26Z"/><path class="cls-3" d="m74.94,203.79l7.89-.55c3.09,7.98,2.04,14.61-1.3,16.43-1.51.82-3.5.68-4.92-.12-3.43-1.93-4.65-8.35-1.67-15.76Z"/><path class="cls-10" d="m41.33,111.69c.34,9.63.68,19.25,1.02,28.88l-2.55,8.68-11.32-20.37c1.58-3.29,3.87-7.25,7.21-11.29,1.92-2.33,3.84-4.28,5.64-5.9Z"/><path class="cls-10" d="m88.77,110.79c2.09,11.74,4.17,23.47,6.26,35.21l2.97,7.31,10.86-15.11c-2.09-5.33-5.65-12.43-11.78-19.44-2.82-3.23-5.68-5.86-8.31-7.97Z"/><path class="cls-8" d="m21.06,97.75c.47,19.2,4.22,31.71,7.25,39.18,1.86,4.57,3.33,6.95,4.78,6.85,2.91-.21,4.88-10.43,4.82-18.17-.06-7.89-2.25-14.14-3.87-17.85-1.75-.8-3.76-1.88-5.85-3.36-3.19-2.25-5.51-4.67-7.13-6.65Z"/><polygon class="cls-7" points="24.86 126.49 37.89 124.46 37.89 127.54 26 130.47 24.86 126.49"/><path class="cls-8" d="m110.07,94.42c1.56,5.14,3.48,13.53,2.83,23.84-.43,6.78-2.3,19.56-5.98,19.88-2.91.25-5.93-7.42-7.09-11.81-2.55-9.65.03-18.11,1.66-22.28"/><polygon class="cls-7" points="98.88 120.77 112.69 120.77 112.12 125.38 99.33 124.46 98.88 120.77"/><path class="cls-7" d="m41.16,110.45c.74,12.04,1.05,22.27,1.19,30.12.27,15.21.4,22.81.06,27.21-1.12,14.3-5.22,23.09-.02,29.45,2.14,2.62,5.38,4.31,5.78,4.51,1.53.78,4.11,1.84,13.09,2.23,1.48.07,5.21.14,11.55,0,.27,0,1.07-.05,2.15-.13.35-.02.73-.05,1.13-.08,3.89-.3,9.89-.83,11.1-1.23,3.22-1.05,7.43-2.42,9.63-6.01,2.86-4.67.56-10.6.06-13.21-1.67-8.66-3.1-21.1-1.83-37.32-2.09-11.74-4.17-23.47-6.26-35.21-5.77,1.46-13.36,2.8-22.28,2.88-10.36.1-19.03-1.53-25.33-3.22Z"/><path class="cls-10" d="m57.54,119.27c-.01,4.08-.03,8.15-.04,12.23,2.15-2.04,4.31-4.08,6.46-6.11,2.06,2.05,4.12,4.09,6.19,6.14v-12.29l-6.19,6.15c-2.14-2.04-4.28-4.08-6.42-6.11Z"/><path class="cls-10" d="m42.89,158.76c17.22-.54,34.44-1.09,51.66-1.63.04,2.28.07,4.55.11,6.83-17.33.5-34.65,1.01-51.98,1.51.07-2.24.14-4.47.21-6.71Z"/><path class="cls-4" d="m52.87,202.74c-1.37,7.75-.76,13.91,1.51,15.68,1.68,1.31,3.21,1.22,3.21,1.22s1.26-.08,2.54-1.12c2.06-1.68,3.21-7.24,2.95-14.46.38.05.76.11,1.14.16.32,1.28.66,3.19.59,5.49-.03.99-.33,10.28-5.48,12-2.38.8-4.61-.41-4.73-.47-4.78-2.67-3.57-11.59-3.41-12.78.35-2.57,1.14-4.56,1.67-5.72Z"/><path class="cls-5" d="m76.1,219.21c1.46.97,3.68,1.36,5.44.46,2.55-1.3,2.91-4.67,3.11-6.62.3-2.85-.43-5.44-1.03-7.54-.29-1-.58-1.81-.79-2.37-.21.02-.42.04-.64.06.55,1.96,1.53,6.02,1.18,9.86-.1,1.08-.32,2.28-1.19,3.33-.22.26-1.25,1.5-2.81,1.59-1.72.1-3-1.26-3.52-1.82-3.48-3.73-.57-11.72-.31-12.39-.2.01-.39.03-.59.04-.36.86-.81,2.07-1.15,3.56-.3,1.32-.72,3.14-.53,5.29.18,1.96.45,4.96,2.83,6.53Z"/><path class="cls-5" d="m10.95,63.09c-6.08.91-9.59,4.64-9.21,6.88.36,2.13,4.44,4.25,9.8,3.78-.2-3.56-.39-7.11-.59-10.67Z"/><path class="cls-5" d="m118.59,65.4c-.23,3.4-.46,6.81-.7,10.21,5.29-.33,8.36-3.95,7.98-6.27-.33-2-3.37-3.94-7.28-3.94Z"/><ellipse class="cls-9" cx="41.17" cy="78" rx="8.66" ry="4.18"/><ellipse class="cls-9" cx="82.08" cy="79.47" rx="8.77" ry="4.18"/><path class="cls-6" d="m67.85,74.05v-10.5c-.35-4.04,3.18-7.2,6.89-7.35,3.6-.15,7.34,2.47,7.34,4.81v13.9c-.11,2.66-3.71,4.7-7.6,4.56-4.08-.15-7.34-2.65-6.63-5.41Z"/><path class="cls-6" d="m40.98,73.89v-9.95c-.56-4.35,3.12-7.75,6.89-7.9,3.47-.14,7.34,2.39,7.34,4.81v13.9c-.11,2.66-3.71,4.7-7.6,4.56-4.08-.15-7.34-2.65-6.63-5.41Z"/><path class="cls-1" d="m53.02,87.04c-.99,5.51,3.92,9.96,8.68,10.07,4.85.11,10.12-4.3,9.25-9.95"/><ellipse class="cls-10" cx="48.05" cy="61.92" rx="4.39" ry="3.35"/><ellipse class="cls-10" cx="75.43" cy="61.56" rx="4.39" ry="3.35"/><path class="cls-2" d="m43.39,59.42c-.58-.12-1.67-.42-2.75-1.29-.92-.74-1.43-1.56-1.69-2.06"/><path class="cls-2" d="m42.9,59.59c-.24.12-1.68.83-3.34.21-1.31-.49-1.95-1.51-2.13-1.81"/><path class="cls-2" d="m42.9,60.08c-.19.2-1.3,1.35-3.1,1.37-1.89.01-3.04-1.23-3.22-1.42"/><path class="cls-2" d="m85.22,57.12c-.3.5-.96,1.43-2.13,2.16-1,.62-1.95.83-2.51.9"/><path class="cls-2" d="m86.08,59.07c-.14.23-1.01,1.58-2.75,1.9-1.38.26-2.45-.29-2.75-.46"/><path class="cls-2" d="m87.16,60.69c-.16.22-1.14,1.49-2.93,1.71-1.87.23-3.17-.87-3.36-1.05"/></g></svg>