<?xml version="1.0" encoding="UTF-8"?><svg id="Layer_2" xmlns="http://www.w3.org/2000/svg" width="202.66" height="207.64" viewBox="0 0 202.66 207.64"><defs><style>.cls-1{fill:none;stroke-width:10px;}.cls-1,.cls-2{stroke:#231f20;stroke-miterlimit:10;}.cls-2{fill:#231f20;stroke-width:7px;}</style></defs><g id="Layer_1-2"><path class="cls-1" d="m48.5,202.62c-2.66.09-18.84.38-31.38-12.43-10.81-11.04-11.68-24.42-11.81-27.65-.1-39.15-.21-78.3-.31-117.45.34-3.49,2.06-16.74,13.36-27.65,11.52-11.13,25.14-12.25,28.59-12.43,37.69.43,75.38.87,113.07,1.3,3.1.39,17.51,2.57,28.06,15.54,11.44,14.07,9.61,30.14,9.26,32.88-.21,32.52-.41,65.04-.62,97.56.25,4.71.2,16.39-7.13,28.02-11.63,18.45-32.02,21.58-35.13,22.01l-105.95.31Z"/><ellipse class="cls-1" cx="100.56" cy="102.08" rx="47.99" ry="48.64"/><circle class="cls-2" cx="155.62" cy="47.13" r="12.09"/></g></svg>