<?xml version="1.0" encoding="UTF-8"?><svg id="Layer_2" xmlns="http://www.w3.org/2000/svg" width="82.14" height="17.87" viewBox="0 0 82.14 17.87"><defs><style>.cls-1{fill:#fff;}.cls-1,.cls-2{stroke-width:0px;}.cls-2{fill:#f26c75;}</style></defs><g id="Layer_1-2"><path class="cls-2" d="m10.3,17.87c-1.47-.8-3.53-2.07-5.72-3.95-1.77-1.52-2.71-2.34-3.45-3.75-.26-.5-2.4-4.58-.03-7.58C2.65.65,5.14.37,5.45.34c2.69-.26,4.54,1.21,4.84,1.45C10.68,1.41,12.14.06,14.32,0c2.76-.07,4.79,2.01,5.61,3.73,1.19,2.5.14,4.92-.33,6-.84,1.94-2.14,3.07-3.77,4.5-1.23,1.08-3.05,2.44-5.54,3.64Z"/><path class="cls-1" d="m2.29,3.04c-.17-.07-.82.7-1.08,1.56-.22.73-.19,1.64-.02,1.67.34.06,1.41-3.09,1.1-3.23Z"/><path class="cls-1" d="m2.8,2.03c.22-.03.44.17.44.39,0,.24-.29.43-.52.36-.18-.06-.28-.27-.23-.45.03-.14.15-.27.32-.29Z"/><path class="cls-2" d="m40.95,17.87c-1.47-.8-3.53-2.07-5.72-3.95-1.77-1.52-2.71-2.34-3.45-3.75-.26-.5-2.4-4.58-.03-7.58,1.54-1.95,4.03-2.22,4.35-2.26,2.69-.26,4.54,1.21,4.84,1.45.39-.38,1.85-1.74,4.02-1.79,2.76-.07,4.79,2.01,5.61,3.73,1.19,2.5.14,4.92-.33,6-.84,1.94-2.14,3.07-3.77,4.5-1.23,1.08-3.05,2.44-5.54,3.64Z"/><path class="cls-1" d="m32.95,3.04c-.17-.07-.82.7-1.08,1.56-.22.73-.19,1.64-.02,1.67.34.06,1.41-3.09,1.1-3.23Z"/><path class="cls-1" d="m33.45,2.03c.22-.03.44.17.44.39,0,.24-.29.43-.52.36-.18-.06-.28-.27-.23-.45.03-.14.15-.27.32-.29Z"/><path class="cls-2" d="m71.96,17.87c-1.47-.8-3.53-2.07-5.72-3.95-1.77-1.52-2.71-2.34-3.45-3.75-.26-.5-2.4-4.58-.03-7.58,1.54-1.95,4.03-2.22,4.35-2.26,2.69-.26,4.54,1.21,4.84,1.45.39-.38,1.85-1.74,4.02-1.79,2.76-.07,4.79,2.01,5.61,3.73,1.19,2.5.14,4.92-.33,6-.84,1.94-2.14,3.07-3.77,4.5-1.23,1.08-3.05,2.44-5.54,3.64Z"/><path class="cls-1" d="m63.96,3.04c-.17-.07-.82.7-1.08,1.56-.22.73-.19,1.64-.02,1.67.34.06,1.41-3.09,1.1-3.23Z"/><path class="cls-1" d="m64.46,2.03c.22-.03.44.17.44.39,0,.24-.29.43-.52.36-.18-.06-.28-.27-.23-.45.03-.14.15-.27.32-.29Z"/></g></svg>