<?xml version="1.0" encoding="UTF-8"?><svg id="Layer_2" xmlns="http://www.w3.org/2000/svg" width="99.85" height="101.44" viewBox="0 0 99.85 101.44"><defs><style>.cls-1{stroke-width:1.5px;}.cls-1,.cls-2,.cls-3,.cls-4{fill:none;stroke:#603913;stroke-miterlimit:10;}.cls-2{stroke-width:2px;}.cls-4{stroke-width:.5px;}</style></defs><g id="Layer_1-2"><ellipse class="cls-2" cx="49.93" cy="50.72" rx="48.93" ry="49.72"/><path class="cls-2" d="m27.62,6.46c-6.74,9.23-9.67,17.34-11.1,22.92-2.67,10.36-1.47,16.96-5.04,31.2-1.54,6.16-3.29,11.03-4.47,14.05"/><path class="cls-2" d="m34.23,3.62c-8.53,10.44-11.45,19.69-12.49,26.38-1.94,12.45,2.02,20.04-2.19,31.99-2.62,7.45-7.06,12.75-10.46,16.11"/><path class="cls-3" d="m42.37,1.59c-3.22,3.64-7.29,9.36-8.76,17.05-1.64,8.58,1.63,10.95,1.46,21.57-.2,12.45-4.89,22.09-8.13,28.76-3.73,7.68-7.96,13.46-11.18,17.33"/><path class="cls-3" d="m62.54,2.67c-3.46,2.02-8.22,5.46-11.84,11.07-4.66,7.24-3.99,12.81-5.84,23.55-3.6,20.97-10.1,22.76-8.96,33.24.71,6.59,4.34,15.59,17.61,25.53.38,1.38.77,2.76,1.15,4.14"/><path class="cls-1" d="m92.63,26.43c-3.98-1.94-10.98-4.69-19.94-4.66-6.14.02-13.3.04-17.61,4.48-7.67,7.9-1.35,24.74,1.25,31.68,5.64,15.04,15.55,25.4,23.72,31.97"/><path class="cls-3" d="m87.53,82.53c-4-1.93-18.33-9.42-23.07-25.23-2.87-9.58-3.15-25.28,4.77-29.22,7.32-3.64,17.84,4.68,19.09,5.67,7.53,5.96,9.84,14.01,10.53,16.97"/><path class="cls-4" d="m75.84,34.75c4.06-.54,8.33,7.13,9.8,12.84,1.75,6.81.58,15-2.11,15.63-1.42.33-3.25-2-6.93-6.68-4.05-5.15-6.08-7.73-6.34-10.82-.39-4.72,2.27-10.54,5.58-10.99Z"/></g></svg>